<?xml version="1.0" encoding="utf-8"?>
<!-- Generator: Adobe Illustrator 28.2.0, SVG Export Plug-In . SVG Version: 6.00 Build 0)  -->
<svg version="1.1" id="Layer_1" xmlns="http://www.w3.org/2000/svg" xmlns:xlink="http://www.w3.org/1999/xlink" x="0px" y="0px"
	 viewBox="0 0 66.6 65.9" style="enable-background:new 0 0 66.6 65.9;" xml:space="preserve">
<style type="text/css">
	.st0{fill:none;stroke:#9F6449;stroke-width:6.5073;stroke-linecap:round;stroke-linejoin:round;stroke-miterlimit:133.3333;}
</style>
<g id="SVGRepo_bgCarrier">
</g>
<g id="SVGRepo_tracerCarrier">
</g>
<g id="SVGRepo_iconCarrier">
	<path class="st0" d="M26,61.9H13.7c-3.6,0-5.5,0-6.9-0.7c-1.2-0.6-2.2-1.6-2.8-2.8c-0.7-1.4-0.7-3.2-0.7-6.9V20.3
		c0-3.6,0-5.5,0.7-6.9c0.6-1.2,1.6-2.2,2.8-2.8c1.4-0.7,3.2-0.7,6.9-0.7h37.7c3.6,0,5.5,0,6.9,0.7c1.2,0.6,2.2,1.6,2.8,2.8
		c0.7,1.4,0.7,3.2,0.7,6.9v5.9 M16.3,3.4v6.5 M48.8,3.4v6.5 M3.3,22.9h58.6 M37.4,35.9l-21.1,0 M26,48.9l-9.8,0 M39.1,61.9l6.6-1.3
		c0.6-0.1,0.9-0.2,1.1-0.3c0.2-0.1,0.5-0.2,0.7-0.4c0.2-0.2,0.4-0.4,0.9-0.8l13.5-13.5c1.8-1.8,1.8-4.7,0-6.5
		c-1.8-1.8-4.7-1.8-6.5,0L41.8,52.7c-0.4,0.4-0.6,0.6-0.8,0.9c-0.1,0.2-0.3,0.4-0.4,0.7c-0.1,0.3-0.2,0.6-0.3,1.1L39.1,61.9z"/>
</g>
</svg>
