<?xml version="1.0" encoding="utf-8"?>
<!-- Generator: Adobe Illustrator 28.2.0, SVG Export Plug-In . SVG Version: 6.00 Build 0)  -->
<svg version="1.1" id="Layer_1" xmlns="http://www.w3.org/2000/svg" xmlns:xlink="http://www.w3.org/1999/xlink" x="0px" y="0px"
	 viewBox="0 0 57.4 49.7" style="enable-background:new 0 0 57.4 49.7;" xml:space="preserve">
<style type="text/css">
	.st0{fill:#9F6449;}
</style>
<g id="SVGRepo_bgCarrier">
</g>
<g id="SVGRepo_tracerCarrier">
</g>
<g id="SVGRepo_iconCarrier">
	<path class="st0" d="M52,27.2c-1.5,0-2.7,1.2-2.7,2.7v10.9c0,1.5-1.2,2.7-2.7,2.7H8.2c-1.5,0-2.7-1.2-2.7-2.7V14.6l16.1,16.1
		c1.5,1.5,3.6,2.4,5.8,2.4c2.2,0,4.3-0.9,5.9-2.5l2.4-2.4c0.9-1.2,0.6-2.9-0.6-3.8c-1-0.7-2.2-0.7-3.2,0L29.3,27c-1.1,1-2.8,1-3.8,0
		L9.3,10.8h12.6c1.5,0,2.7-1.2,2.7-2.7s-1.2-2.7-2.7-2.7H8.2C3.7,5.3,0,9,0,13.5v27.4c0,4.5,3.7,8.2,8.2,8.2h38.3
		c4.5,0,8.2-3.7,8.2-8.2V29.9C54.7,28.4,53.5,27.2,52,27.2z M54.9,2.6C52-0.2,47.7-0.8,44.2,1.1c-4.3-2.4-9.7-0.8-12.1,3.5
		c-1.9,3.4-1.3,7.7,1.5,10.5l8.8,8.5c0.5,0.5,1.2,0.8,1.9,0.8c0.7,0,1.4-0.3,1.9-0.8L55,15C58.3,11.5,58.2,6,54.9,2.6z M51,11.1
		l-6.8,6.8l-6.7-6.8c-1.3-1.4-1.3-3.5,0-4.9s3.5-1.3,4.9,0c1.1,1.1,2.8,1.1,3.9,0c0,0,0,0,0,0c1.4-1.3,3.5-1.3,4.8,0
		C52.4,7.7,52.3,9.8,51,11.1z"/>
</g>
</svg>
